<?xml version="1.0" standalone="no"?>
<!DOCTYPE svg PUBLIC "-//W3C//DTD SVG 20010904//EN"
 "http://www.w3.org/TR/2001/REC-SVG-20010904/DTD/svg10.dtd">
<svg version="1.0" xmlns="http://www.w3.org/2000/svg"
 width="600.000000pt" height="600.000000pt" viewBox="0 0 600.000000 600.000000"
 preserveAspectRatio="xMidYMid meet">

<g transform="translate(0.000000,600.000000) scale(0.100000,-0.100000)"
fill="#000000" stroke="none">
<path d="M2244 4866 c-17 -8 -42 -29 -55 -47 -54 -76 -28 -315 50 -466 29 -55
30 -56 27 -23 -2 19 -7 43 -11 53 -4 10 -5 48 -2 84 4 56 9 69 35 93 17 15 33
25 36 22 3 -3 6 2 6 10 0 15 55 48 79 48 6 0 11 5 11 11 0 8 5 7 16 -2 13 -10
19 -8 40 14 14 15 20 29 14 32 -6 4 -8 11 -5 16 11 16 63 10 102 -13 l38 -21
-45 47 c-25 25 -46 42 -48 36 -2 -5 -8 -10 -14 -10 -6 0 -8 7 -5 15 8 19 -42
60 -90 75 -21 7 -43 17 -50 22 -7 5 -17 7 -23 3 -5 -3 -10 -1 -10 4 0 15 -59
13 -96 -3z"/>
<path d="M3644 4871 c3 -5 0 -9 -7 -8 -43 1 -50 -3 -36 -20 13 -16 12 -17 -3
-5 -14 12 -22 11 -50 -5 -55 -30 -80 -55 -66 -65 9 -6 6 -7 -7 -4 -15 5 -31
-5 -59 -33 -31 -32 -35 -39 -17 -34 11 3 21 10 21 15 0 5 19 8 43 6 35 -2 42
-6 40 -22 -1 -11 6 -25 14 -31 11 -8 13 -17 7 -26 -6 -10 0 -9 19 4 29 19 52
23 42 7 -5 -8 20 -14 46 -12 10 1 106 -92 117 -115 15 -27 15 -116 1 -166 -18
-66 -3 -64 30 4 17 36 40 108 52 160 48 221 -6 359 -143 359 -27 0 -47 -4 -44
-9z m-179 -121 c3 -5 1 -10 -4 -10 -6 0 -11 5 -11 10 0 6 2 10 4 10 3 0 8 -4
11 -10z"/>
<path d="M2490 4661 c0 -6 5 -13 10 -16 20 -12 10 -25 -20 -25 -42 0 -165 -90
-157 -114 2 -6 -4 -41 -14 -78 -21 -75 -24 -102 -10 -80 6 11 10 10 16 -5 5
-10 9 -21 9 -25 1 -4 7 -13 14 -20 11 -11 17 -8 34 17 41 58 148 154 198 177
28 13 48 28 46 34 -2 6 1 17 7 23 8 8 7 11 -5 11 -8 0 -35 25 -58 55 -38 50
-70 70 -70 46z"/>
<path d="M3437 4629 c-19 -23 -44 -58 -55 -78 l-21 -37 77 -52 c50 -34 89 -70
112 -103 19 -28 40 -56 46 -62 6 -7 11 -19 11 -27 1 -19 32 -89 33 -72 0 8 16
4 53 -13 28 -14 44 -20 33 -13 -68 46 -85 56 -90 50 -3 -3 -6 0 -6 6 0 5 -3
18 -6 26 -5 12 -2 15 10 10 9 -3 16 -2 16 3 0 5 16 25 35 45 l35 36 -16 63
c-9 35 -15 74 -15 85 1 21 -26 46 -107 102 -19 13 -48 22 -69 22 -34 0 -35 1
-20 18 17 19 14 32 -8 32 -7 0 -28 -19 -48 -41z"/>
<path d="M2885 4510 c-18 -8 -18 -9 -2 -9 10 -1 16 -5 12 -10 -3 -5 8 -9 23
-9 16 1 34 -2 41 -6 6 -4 11 -2 11 3 0 6 -4 11 -10 11 -5 0 -9 6 -7 13 3 15
-40 19 -68 7z"/>
<path d="M2664 4447 c-125 -48 -216 -120 -270 -213 -15 -27 -37 -57 -48 -67
-12 -10 -15 -16 -8 -12 15 8 15 4 -1 -66 -10 -40 -11 -78 -5 -134 8 -74 11
-81 56 -132 26 -30 51 -60 56 -67 15 -22 -37 -85 -111 -134 -37 -25 -86 -60
-108 -78 -22 -17 -116 -71 -210 -118 -93 -47 -210 -108 -260 -134 -49 -26
-163 -81 -253 -122 -89 -40 -158 -77 -152 -80 6 -4 10 -12 8 -17 -2 -6 17 -41
41 -78 35 -53 41 -69 30 -76 -9 -6 -15 -4 -17 6 -6 25 -32 17 -32 -9 0 -13 -9
-35 -21 -50 -26 -33 -19 -72 16 -88 34 -15 77 3 68 29 -8 23 1 15 16 -14 10
-19 7 -27 -20 -58 -24 -27 -30 -41 -25 -60 8 -30 49 -49 84 -40 21 5 23 10 18
36 -5 28 -4 29 10 14 19 -19 12 -57 -16 -85 -11 -11 -20 -31 -20 -44 0 -13
-10 -30 -22 -39 -13 -9 -18 -16 -12 -16 11 -1 167 106 364 249 104 75 255 157
351 190 21 8 51 10 73 6 52 -10 60 -36 47 -160 -10 -86 -9 -115 10 -230 12
-72 30 -148 41 -169 17 -34 21 -72 29 -280 5 -133 9 -327 7 -432 -2 -169 0
-193 16 -217 20 -30 119 -84 172 -94 l34 -6 0 -84 c0 -73 3 -86 22 -103 37
-35 129 -45 209 -22 50 14 63 31 74 98 13 77 9 73 96 73 l79 0 0 -32 c0 -44
17 -104 35 -121 7 -8 41 -20 74 -27 54 -11 67 -11 118 6 70 23 81 42 85 143
l3 72 46 13 c68 21 144 62 161 88 13 20 16 93 21 463 5 439 5 440 30 510 37
101 54 266 37 366 -11 71 -11 81 6 116 11 20 33 45 49 54 30 17 31 17 135 -30
113 -50 207 -110 365 -231 142 -108 306 -223 311 -217 3 2 -6 12 -20 20 -18
12 -23 22 -19 38 4 14 0 26 -9 33 -26 19 -40 56 -32 84 l7 27 6 -30 c5 -25 11
-31 39 -33 63 -6 83 45 38 98 -24 29 -26 73 -4 86 6 4 8 -2 4 -14 -5 -15 -1
-24 14 -32 27 -15 57 -5 77 26 15 24 15 27 -7 55 -14 20 -21 41 -18 58 4 24 1
27 -20 23 -15 -3 -21 -9 -18 -19 4 -9 1 -13 -6 -10 -18 6 -11 35 17 71 12 17
28 48 36 68 7 21 20 39 28 40 9 2 -20 19 -64 37 -156 64 -243 105 -509 238
-149 74 -293 150 -320 169 -124 83 -167 118 -187 152 -12 20 -30 46 -40 57
-18 20 -17 22 26 75 52 63 69 122 64 218 -4 64 2 75 21 45 10 -16 11 -16 4 2
-4 11 -7 27 -8 36 -1 29 -30 14 -32 -17 -2 -43 -3 -46 -13 -40 -5 3 -14 -7
-20 -22 -9 -22 -9 -34 3 -56 13 -25 12 -32 -13 -80 -14 -29 -30 -53 -35 -53
-5 -1 -12 -6 -15 -11 -9 -15 -51 -25 -51 -13 0 6 -11 11 -25 11 -14 0 -29 8
-35 20 -6 11 -17 20 -25 20 -7 0 -16 6 -18 13 -3 8 -14 2 -32 -18 -18 -19 -29
-26 -32 -17 -3 6 -11 12 -19 12 -8 0 -14 4 -14 10 0 5 -7 7 -16 3 -8 -3 -13
-12 -10 -19 4 -10 -3 -12 -27 -7 -49 9 -52 9 -50 -3 1 -6 -5 -11 -13 -11 -7 0
-14 4 -14 9 0 4 5 8 10 8 11 0 11 60 0 105 -7 27 -8 27 -9 6 -2 -39 -10 -19
-16 36 -5 58 -39 142 -49 121 -3 -7 -4 -2 -2 11 4 18 -4 33 -30 59 -18 18 -34
43 -34 55 0 11 -11 40 -25 64 -18 29 -22 43 -13 43 26 0 59 -32 107 -103 46
-67 55 -75 147 -124 106 -55 178 -74 258 -67 54 4 70 18 86 77 13 45 7 68 -30
122 -43 62 -112 121 -187 158 -135 67 -216 72 -285 17 -44 -36 -48 -36 -48 -9
0 11 -4 18 -9 14 -6 -3 -14 2 -19 11 -8 14 -11 14 -27 -3 -13 -13 -20 -14 -23
-5 -2 6 -12 12 -23 12 -14 0 -19 -7 -19 -25 0 -32 -3 -31 -49 5 -52 42 -116
48 -197 17z m-30 -154 c-8 -34 -1 -29 -52 -37 -53 -8 -53 7 -2 42 46 31 62 29
54 -5z m749 -6 c36 -24 24 -35 -30 -29 -39 4 -43 7 -43 32 0 24 3 27 23 23 12
-4 35 -15 50 -26z m-497 -52 c-1 -8 -9 -22 -18 -32 -8 -10 -18 -34 -22 -53 -3
-19 -7 -44 -9 -55 -3 -13 2 -21 12 -22 9 -1 42 -8 74 -14 46 -10 68 -10 105 0
27 7 49 8 54 3 5 -5 12 -43 15 -84 l6 -74 -37 -36 c-38 -37 -46 -54 -21 -44
22 8 37 -27 25 -58 -12 -32 -17 -32 -41 -3 l-18 22 -1 -38 c0 -21 -4 -46 -9
-56 -9 -16 -18 -57 -20 -88 -1 -7 -8 -13 -17 -13 -19 0 -57 82 -48 104 3 9 3
28 -1 43 l-7 28 -18 -25 c-16 -21 -20 -22 -35 -10 -28 23 -38 50 -24 66 9 11
6 22 -15 52 -28 41 -32 86 -17 172 5 25 12 61 15 80 l6 35 -18 -40 c-10 -22
-22 -67 -26 -100 -4 -33 -11 -62 -17 -63 -6 -3 -6 -9 1 -17 8 -9 9 -28 3 -57
l-9 -43 -9 45 c-4 25 -10 38 -12 29 -2 -10 -13 -19 -24 -22 -10 -3 -26 -21
-34 -41 -9 -20 -20 -36 -26 -36 -6 0 -20 -10 -31 -22 -11 -13 -17 -18 -14 -11
4 6 2 14 -4 18 -5 3 -10 1 -10 -4 0 -15 -26 -9 -85 19 -27 13 -54 24 -60 24
-24 2 -64 38 -58 53 5 12 2 15 -9 10 -12 -4 -14 -1 -10 15 4 16 2 19 -9 13
-12 -7 -12 -6 -1 7 7 9 10 27 7 41 -4 14 -2 28 4 31 6 4 5 20 -5 48 -16 45
-19 82 -5 60 11 -18 170 -33 218 -21 79 21 210 99 267 158 29 31 46 33 42 6z
m264 -335 c0 -11 -4 -20 -9 -20 -5 0 -7 9 -4 20 3 11 7 20 9 20 2 0 4 -9 4
-20z m223 -68 c-5 -12 -7 -12 -15 2 -11 20 1 44 12 25 5 -6 6 -19 3 -27z m-86
-24 c-3 -7 -5 -2 -5 12 0 14 2 19 5 13 2 -7 2 -19 0 -25z m-135 -30 c-10 -22
-11 -21 -11 12 -1 26 2 31 11 22 8 -8 8 -17 0 -34z m-372 -23 c0 -17 -2 -17
-10 -5 -5 8 -10 24 -10 35 0 17 2 17 10 5 5 -8 10 -24 10 -35z m-251 -129 c14
2 41 -9 41 -17 0 -15 42 -10 54 7 10 14 15 13 39 -6 16 -13 36 -20 47 -17 11
3 20 1 20 -5 0 -5 5 -6 10 -3 6 4 10 -13 10 -45 0 -32 4 -49 10 -45 6 3 7 17
4 31 -3 13 -3 35 0 49 6 23 8 24 22 10 8 -8 24 -15 34 -15 10 0 21 -4 25 -9 3
-5 18 -12 34 -16 20 -4 31 -14 35 -31 4 -16 13 -24 29 -24 20 1 20 2 5 11 -22
12 -24 57 -3 65 8 3 26 -4 41 -15 21 -17 35 -20 63 -15 20 4 42 11 48 16 19
15 43 2 44 -24 1 -13 6 -3 11 22 6 25 12 40 15 34 4 -12 63 -6 63 7 0 4 19 13
43 20 23 6 52 16 65 22 18 8 29 7 51 -6 32 -19 61 -22 61 -7 0 5 8 6 17 3 13
-5 15 -3 9 12 -4 11 -4 16 0 12 4 -4 14 -1 22 5 12 10 14 9 11 -7 -6 -29 -89
-87 -221 -156 -85 -44 -118 -66 -118 -80 0 -10 -4 -21 -10 -24 -5 -3 -10 1
-10 9 0 23 -9 20 -67 -19 l-51 -34 -78 38 c-72 35 -115 54 -229 100 -98 39
-201 100 -222 131 -29 41 -30 59 -2 34 12 -10 24 -19 28 -18z m-1029 -807 c0
-14 -17 -10 -23 5 -4 10 -1 13 9 9 7 -3 14 -9 14 -14z m3040 7 c0 -3 -4 -8
-10 -11 -5 -3 -10 -1 -10 4 0 6 5 11 10 11 6 0 10 -2 10 -4z m-2985 -87 c-4
-12 -2 -19 6 -19 7 0 10 -2 8 -5 -3 -2 -23 2 -44 9 -45 16 -56 43 -29 71 17
17 19 16 41 -10 15 -17 22 -34 18 -46z m2966 31 c12 -40 5 -67 -10 -41 -7 10
-10 9 -14 -3 -8 -21 -33 -20 -41 0 -6 16 31 84 46 84 4 0 13 -18 19 -40z m-75
-98 c-18 -16 -18 -16 -6 6 6 13 14 21 18 18 3 -4 -2 -14 -12 -24z m-2856 6 c0
-4 -7 -8 -15 -8 -8 0 -15 4 -15 8 0 5 7 9 15 9 8 0 15 -4 15 -9z m1170 -1368
c0 -5 -5 -21 -12 -35 -13 -29 -28 -17 -28 23 0 15 6 22 20 22 11 0 20 -4 20
-10z m502 -15 c-7 -46 -13 -50 -28 -16 -18 43 -18 43 9 39 16 -2 21 -9 19 -23z"/>
<path d="M2910 3825 c-7 -8 -9 -23 -5 -32 6 -16 8 -16 18 5 11 24 54 31 75 10
15 -15 26 -4 19 17 -8 20 -90 21 -107 0z"/>
<path d="M2985 3470 c-4 -12 -5 -24 -2 -27 3 -2 8 5 12 17 4 12 5 24 2 27 -3
2 -8 -5 -12 -17z"/>
<path d="M3162 3470 c0 -14 2 -19 5 -12 2 6 2 18 0 25 -3 6 -5 1 -5 -13z"/>
<path d="M2320 4233 c-18 -7 -30 -23 -30 -41 0 -7 11 -1 25 14 14 15 25 29 25
30 0 4 1 5 -20 -3z"/>
<path d="M3690 4035 c0 -3 9 -16 21 -28 l20 -22 -9 24 c-8 23 -32 42 -32 26z"/>
<path d="M1249 3072 c-14 -6 -15 -9 -4 -19 10 -9 18 -8 36 7 20 18 20 20 3 19
-10 0 -26 -3 -35 -7z"/>
<path d="M4673 3054 c0 -16 13 -19 21 -5 3 5 0 11 -7 14 -8 3 -14 -1 -14 -9z"/>
<path d="M4726 3056 c8 -21 27 -26 41 -11 9 10 7 14 -10 19 -33 9 -37 7 -31
-8z"/>
<path d="M1153 2960 c3 -14 6 -31 8 -39 3 -9 -11 -22 -36 -34 -67 -32 -317
-187 -372 -231 -29 -22 -52 -49 -53 -58 0 -21 0 -21 37 -7 15 6 49 12 75 14
31 1 76 17 131 44 47 22 88 41 92 41 4 0 47 18 96 40 49 22 95 40 102 40 6 0
28 -23 47 -51 18 -28 38 -53 43 -56 5 -3 -13 28 -40 68 -51 75 -94 155 -119
219 -10 24 -13 27 -11 10z"/>
<path d="M1299 2953 c-1 -10 -1 -25 0 -33 2 -13 1 -13 -8 0 -5 8 -13 11 -18 7
-12 -13 19 -27 51 -25 36 4 47 27 16 35 -13 3 -19 11 -16 19 3 8 -1 14 -9 14
-8 0 -16 -8 -16 -17z"/>
<path d="M4680 2950 c9 -16 9 -25 1 -33 -8 -8 -11 -8 -11 1 0 7 -4 12 -10 12
-14 0 -12 -26 3 -37 15 -13 59 -2 65 16 3 8 0 11 -7 7 -7 -5 -11 1 -11 13 0
11 -9 25 -21 31 -19 11 -20 10 -9 -10z"/>
<path d="M4835 2939 c-4 -6 -5 -12 -2 -15 2 -3 7 2 10 11 7 17 1 20 -8 4z"/>
<path d="M4801 2855 c-13 -27 -30 -57 -38 -66 -12 -15 -11 -17 14 -24 15 -3
61 -22 101 -41 41 -19 76 -34 79 -34 4 0 46 -18 95 -41 49 -23 106 -43 127
-45 21 -2 50 -8 64 -13 27 -11 60 -5 55 9 -9 24 -305 220 -422 280 l-51 25
-24 -50z"/>
</g>
</svg>
